<svg id="Layer_1" data-name="Layer 1" xmlns="http://www.w3.org/2000/svg" xmlns:xlink="http://www.w3.org/1999/xlink" viewBox="0 0 1500.12781 1377.04498"><defs><style>.cls-1,.cls-8{fill:#fff;}.cls-2{fill:url(#radial-gradient);}.cls-3{fill:#15003e;}.cls-4,.cls-5{fill:none;stroke-width:120px;}.cls-10,.cls-11,.cls-13,.cls-17,.cls-18,.cls-19,.cls-20,.cls-21,.cls-22,.cls-4,.cls-5,.cls-8,.cls-9{stroke:#15003e;stroke-miterlimit:10;}.cls-10,.cls-11,.cls-13,.cls-22,.cls-5,.cls-8,.cls-9{stroke-linecap:round;}.cls-6{fill:url(#linear-gradient);}.cls-7{fill:url(#linear-gradient-2);}.cls-10,.cls-13,.cls-8,.cls-9{stroke-width:20px;}.cls-9{fill:#d4d9d3;}.cls-10,.cls-11,.cls-22{fill:#eff4ee;}.cls-11{stroke-width:19.33811px;}.cls-12,.cls-14{opacity:0.25;}.cls-13{fill:#ffce08;}.cls-14{fill:url(#linear-gradient-3);}.cls-15{opacity:0.5;fill:url(#linear-gradient-4);}.cls-16{fill:url(#linear-gradient-5);}.cls-17,.cls-18,.cls-19,.cls-20,.cls-21{stroke-width:5px;}.cls-17{fill:url(#linear-gradient-6);}.cls-18{fill:url(#linear-gradient-7);}.cls-19{fill:url(#linear-gradient-8);}.cls-20{fill:url(#linear-gradient-9);}.cls-21{fill:url(#linear-gradient-10);}.cls-22{stroke-width:20.13871px;}</style><radialGradient id="radial-gradient" cx="1054.59173" cy="1000.00005" r="621.57942" gradientUnits="userSpaceOnUse"><stop offset="0" stop-color="#fa70af"/><stop offset="1" stop-color="#180056"/></radialGradient><linearGradient id="linear-gradient" x1="473.17766" y1="1208.93846" x2="785.4073" y2="652.21322" gradientTransform="translate(-31.93739 22.88673) rotate(-1.9534)" gradientUnits="userSpaceOnUse"><stop offset="0" stop-color="#008f52"/><stop offset="0.1672" stop-color="#049355"/><stop offset="0.34353" stop-color="#119d5e"/><stop offset="0.52415" stop-color="#26b06e"/><stop offset="0.70766" stop-color="#44c984"/><stop offset="0.89162" stop-color="#69e99f"/><stop offset="1" stop-color="#83ffb2"/></linearGradient><linearGradient id="linear-gradient-2" x1="791.93047" y1="573.11944" x2="1322.68262" y2="573.11944" gradientTransform="translate(-28.09333 53.94585) rotate(-2.9047)" gradientUnits="userSpaceOnUse"><stop offset="0" stop-color="#008f52"/><stop offset="0.14867" stop-color="#059356"/><stop offset="0.33096" stop-color="#14a061"/><stop offset="0.53082" stop-color="#2db573"/><stop offset="0.7432" stop-color="#50d38c"/><stop offset="0.96342" stop-color="#7cf8ac"/><stop offset="1" stop-color="#84ffb2"/></linearGradient><linearGradient id="linear-gradient-3" x1="1241.58568" y1="1048.71516" x2="1241.58568" y2="1248.44601" gradientUnits="userSpaceOnUse"><stop offset="0" stop-color="#005731"/><stop offset="0.5" stop-color="#fff" stop-opacity="0.75"/><stop offset="1" stop-color="#005731"/></linearGradient><linearGradient id="linear-gradient-4" x1="1290.16633" y1="1026.80645" x2="1290.16633" y2="1226.6129" gradientUnits="userSpaceOnUse"><stop offset="0" stop-color="#15003e"/><stop offset="0.5" stop-color="#00ff90" stop-opacity="0"/><stop offset="1" stop-color="#15003e"/></linearGradient><linearGradient id="linear-gradient-5" x1="1290.16633" y1="1026.88206" x2="1290.16633" y2="1226.6129" gradientUnits="userSpaceOnUse"><stop offset="0" stop-color="#005731"/><stop offset="0.5" stop-color="#00ff90" stop-opacity="0.75"/><stop offset="1" stop-color="#005731"/></linearGradient><linearGradient id="linear-gradient-6" x1="987.50061" y1="1224.2946" x2="987.50061" y2="1029.21746" gradientUnits="userSpaceOnUse"><stop offset="0" stop-color="#005731"/><stop offset="0.5" stop-color="#00e080"/><stop offset="1" stop-color="#005731"/></linearGradient><linearGradient id="linear-gradient-7" x1="1158.8844" y1="1224.2946" x2="1158.8844" y2="1029.21746" xlink:href="#linear-gradient-6"/><linearGradient id="linear-gradient-8" x1="1292.80529" y1="1224.2946" x2="1292.80529" y2="1029.21746" xlink:href="#linear-gradient-6"/><linearGradient id="linear-gradient-9" x1="1423.11487" y1="1224.2946" x2="1423.11487" y2="1029.21746" xlink:href="#linear-gradient-6"/><linearGradient id="linear-gradient-10" x1="1593.37214" y1="1224.2946" x2="1593.37214" y2="1029.21746" xlink:href="#linear-gradient-6"/></defs><path class="cls-1" d="M1768.9082,1043.19922c-10.43359-25.23438-26.19629-49.356-46.85156-71.69287l-25.23633-27.29248H1659.0874c-28.39966-354.16767-324.80713-632.73639-686.283-632.73639-380.25769,0-688.52258,308.26489-688.52258,688.52258,0,380.25751,308.26489,688.5224,688.52258,688.5224a693.048,693.048,0,0,0,115.97187-9.73706l159.70813,7.865,17.61035.87012.58691.02734c1.94824.082,3.88086.12305,5.81836.12305,42.75293,0,82.81641-20.02637,110.27734-53.27344l107.6875-24.13183a116.09712,116.09712,0,0,0,87.89844-138.67481l-23.29712-103.97974q17.87988-28.26067,33.033-58.31713H1703.084l25.44825-35.2002c35.8164-49.542,54.59472-99.40332,55.81347-148.20117A201.93417,201.93417,0,0,0,1768.9082,1043.19922Z" transform="translate(-284.2818 -311.47748)"/><path class="cls-2" d="M1552.14346,1000.00005c0,41.11965,173.85846-57.78832,163.09479,139.01815-9.29032,169.86735-199.74675,69.15143-219.05328,109.70517-93.06977,195.49489-292.4456,330.61577-523.3806,330.61577-319.96014,0-579.33909-259.379-579.33909-579.33909S652.84423,420.661,972.80437,420.661,1552.14346,680.03991,1552.14346,1000.00005Z" transform="translate(-284.2818 -311.47748)"/><path class="cls-3" d="M972.80437,336.49845c-366.43908,0-663.50161,297.06253-663.50161,663.50161s297.06253,663.50149,663.50161,663.50149,663.5016-297.06247,663.5016-663.50149S1339.24339,336.49845,972.80437,336.49845Zm0,1230.4015c-313.0908,0-566.89995-253.8091-566.89995-566.8999s253.80915-566.89994,566.9-566.89994,566.89989,253.80914,566.89989,566.89994S1285.89517,1566.9,972.80437,1566.9Z" transform="translate(-284.2818 -311.47748)"/><path class="cls-4" d="M1601.23854,1213.42421l6.5,10.87012h51.91c49.71008-68.76,56.22009-134.28009,0-195.08008h-23.97" transform="translate(-284.2818 -311.47748)"/><path class="cls-5" d="M1467.6837,1366.38144l13.45486,60.05278,14.28,63.74a31.0959,31.0959,0,0,1-23.54993,37.15l-114.86011,25.74a31.07932,31.07932,0,0,1-24.53-4.79992,80.11766,80.11766,0,0,1-3.42994,11.59c-10.03,26.30994-33.10009,43.86-58.76,42.7699l-17.61-.86987-402.45-19.82007" transform="translate(-284.2818 -311.47748)"/><path class="cls-3" d="M500.12109,1155.25559l156.904-12.00961,3.65437,47.74107-156.904,12.00961,4.274,55.83793-40.76158,3.11976-12.2023-159.41645,40.76157-3.12024Zm35.04147-67.896c-12.359-18.6589-16.33739-42.95294-12.41492-65.29152,8.08764-46.05586,33.70437-59.18326,83.621-50.41775l69.22116,12.15536-7.26407,41.36735-14.61647-2.56625-.14523.82721c10.09665,8.88023,13.9551,25.76194,11.09741,42.03287-3.82549,21.7871-19.5207,48.02826-51.78728,42.36214-39.71293-6.97362-37.85652-56.39765-30.83466-96.38631l-2.20638-.38742c-13.51305-2.3728-21.74485,7.26887-24.21462,21.3334-2.27629,12.96207,1.83907,26.76194,8.10845,36.39124Zm73.31857-72.69524-1.01705,5.79145c-3.4868,19.85647-4.92716,42.63071,11.34375,45.48791,10.48,1.84013,15.90515-8.01019,17.50309-17.111,3.19636-18.20157-6.04316-30.34241-23.14129-33.34532ZM751.23164,831.62567l-26.33391,50.37271-80.45094,9.44311-.38941.74417,59.30614,31.00428-21.40441,40.94334L494.3636,866.06162,515.768,825.11828l114.14532,59.67314.38941-.74418-29.49841-65.65911,25.8147-49.38032,30.925,76.83134Zm58.5708-135.00609-71.4617,71.4872c11.8809,9.89765,30.49162,6.72627,42.171-4.957,10.29365-10.29729,13.06348-21.78119,11.47773-32.07687l36.82466-8.32159c4.1618,22.76785-3.75374,45.73607-23.74719,65.73634-29.69321,29.70421-73.05175,35.45307-106.31992,2.19666-32.27827-32.26615-29.51419-76.22087.377-106.12238,29.09938-29.1094,69.48947-29.51277,103.1532,4.13958C804.85176,691.275,807.6241,694.04634,809.80244,696.61958Zm-49.89175,9.51281c-10.29729-10.29365-25.34463-12.27114-38.21217.60073-12.47068,12.4753-12.86351,30.29446-3.55631,41.18226Z" transform="translate(-284.2818 -311.47748)"/><path class="cls-3" d="M886.87044,564.42378l57.24742,146.57686-44.59942,17.41869L842.271,581.84246,790.10846,602.2151l-14.8721-38.079,148.92455-58.16395L939.033,544.05066Zm202.41278,121.75269-5.05657-75.43247c-1.04905-15.64516-5.87826-29.07248-22.3615-27.96722-15.92439,1.06713-23.98408,14.79739-22.87931,31.28065l5.038,75.15278-45.81777,3.07137L984.04732,481.072l45.81778-3.07137,6.01173,89.68021.55887-.03765c5.39732-11.58673,19.232-22.898,38.50871-24.19,37.71623-2.52829,52.7952,25.64661,54.66745,53.58422l5.76831,86.04871Zm214.23994-21.23984-97.85163-25.34787c-2.50731,15.259,9.66257,29.692,25.65479,33.83521,14.09569,3.65075,25.39805.21568,33.46819-6.37117l25.8448,27.5206c-17.5145,15.13159-41.32509,19.95474-68.70205,12.86323-40.65825-10.53277-67.59915-44.99013-55.80274-90.52777,11.4457-44.18219,50.73263-64.0868,91.66237-53.48372,39.84573,10.32172,60.6722,44.93092,48.73609,91.01051C1305.61956,657.95961,1304.63678,661.75453,1303.52316,664.93663Zm-33.49637-38.18024c3.65079-14.09472-2.27486-28.06776-19.893-32.63151-17.07718-4.424-32.635,4.27255-37.30037,17.81592Z" transform="translate(-284.2818 -311.47748)"/><path class="cls-6" d="M514.72118,1128.99438l156.904-12.00961,3.65436,47.74107-156.904,12.00961,4.274,55.83793-40.76159,3.11976-12.2023-159.41645,40.76157-3.12024Zm35.04146-67.896c-12.359-18.6589-16.33739-42.95294-12.41492-65.29152,8.08764-46.05586,33.70438-59.18326,83.621-50.41775l69.22116,12.15536-7.26406,41.36735-14.61648-2.56625-.14523.8272c10.09665,8.88024,13.9551,25.76195,11.09742,42.03288-3.8255,21.7871-19.52071,48.02826-51.78729,42.36214-39.71293-6.97362-37.85651-56.39765-30.83465-96.38631l-2.2064-.38742c-13.513-2.3728-21.74483,7.26887-24.21461,21.3334-2.27628,12.96207,1.83908,26.76194,8.10845,36.39124Zm73.31857-72.69524-1.017,5.79145c-3.48681,19.85647-4.92717,42.63071,11.34374,45.48791,10.48,1.84013,15.90514-8.01019,17.50309-17.111,3.19637-18.20157-6.04316-30.34241-23.14129-33.34532ZM765.83172,805.36446l-26.3339,50.37271-80.451,9.44311-.38941.74417,59.30614,31.00428-21.40441,40.94334L508.96368,839.80041l21.40442-40.94334,114.14531,59.67314.38941-.74418-29.49841-65.65911,25.8147-49.38032,30.925,76.83134Zm58.5708-135.00609-71.4617,71.4872c11.88091,9.89765,30.49163,6.72627,42.171-4.957,10.29366-10.29729,13.06349-21.78119,11.47773-32.07687l36.82466-8.32159c4.1618,22.76785-3.75374,45.73607-23.74719,65.73633-29.69321,29.70421-73.05174,35.45308-106.31991,2.19666-32.27827-32.26614-29.5142-76.22087.377-106.12237,29.09937-29.1094,69.48946-29.51277,103.15319,4.13958C819.45184,665.01376,822.22419,667.78513,824.40252,670.35837Zm-49.89174,9.51281c-10.29729-10.29365-25.34463-12.27114-38.21218.60073-12.47068,12.4753-12.86351,30.29446-3.55631,41.18226Z" transform="translate(-284.2818 -311.47748)"/><path class="cls-7" d="M901.0325,537.92379l57.24742,146.57686-44.59941,17.41869L856.43309,555.34247l-52.16257,20.37264-14.87209-38.079L938.323,479.47218l14.87208,38.07849Zm202.41278,121.75269-5.05657-75.43247c-1.049-15.64516-5.87826-29.07248-22.36149-27.96722-15.92439,1.06713-23.98408,14.79739-22.87931,31.28065l5.038,75.15278-45.81778,3.07137L998.20939,454.572l45.81777-3.07136,6.01174,89.68021.55887-.03765c5.39731-11.58674,19.232-22.898,38.5087-24.19,37.71624-2.52829,52.79521,25.64661,54.66745,53.58422l5.76832,86.04871Zm214.24-21.23984-97.85163-25.34787c-2.50732,15.259,9.66257,29.692,25.65479,33.83521,14.09568,3.65075,25.39805.21568,33.46818-6.37117l25.84481,27.52059c-17.5145,15.1316-41.3251,19.95475-68.70205,12.86324-40.65826-10.53277-67.59915-44.99013-55.80274-90.52777,11.44569-44.18219,50.73262-64.0868,91.66236-53.48372,39.84573,10.32172,60.67221,44.93092,48.73609,91.01051C1319.78163,631.45962,1318.79884,635.25454,1317.68523,638.43664Zm-33.49637-38.18024c3.65079-14.09472-2.27487-28.06776-19.893-32.63151-17.07718-4.424-32.635,4.27255-37.30038,17.81592Z" transform="translate(-284.2818 -311.47748)"/><rect class="cls-8" x="1290.32542" y="760.96982" width="179.92055" height="289.39297" rx="31.10339" transform="translate(-183.89848 -448.53355) rotate(5.89868)"/><path class="cls-9" d="M1270.28819,1602.62687l-420.05861-20.69649c-30.74871-1.2986-55.56562-28.94427-57.89077-64.48946L753.91305,930.01738c-2.77389-42.40524,27.181-78.49689,63.864-76.94766L1434.079,879.0978c36.68306,1.54922,63.48821,40.038,57.14879,82.05836L1333.41024,1543.2481C1328.09638,1578.47068,1301.03689,1603.92547,1270.28819,1602.62687Z" transform="translate(-284.2818 -311.47748)"/><rect class="cls-10" x="790.5197" y="842.20996" width="140.00852" height="256.6176" rx="23.67212" transform="translate(-179.98566 -394.77447) rotate(5.89868)"/><path class="cls-11" d="M1013.12359,849.54006h142.95007a16.205,16.205,0,0,1,16.205,16.205v79.5956a0,0,0,0,1,0,0H996.91854a0,0,0,0,1,0,0v-79.5956a16.205,16.205,0,0,1,16.205-16.205Z" transform="matrix(0.97767, 0.21015, -0.21015, 0.97767, -71.46546, -519.36467)"/><rect class="cls-11" x="955.44798" y="944.80719" width="175.36017" height="291.13015" transform="translate(-31.84703 -506.34136) rotate(12.1311)"/><circle class="cls-12" cx="746.65368" cy="933.32778" r="90.97561"/><circle class="cls-12" cx="576.25938" cy="797.7142" r="73.69275"/><circle class="cls-13" cx="728.96255" cy="915.08504" r="90.97561"/><circle class="cls-13" cx="562.85156" cy="780.96055" r="70.79437"/><path class="cls-14" d="M1604.72212,1248.446l-636.65089,0a53.25905,53.25905,0,0,1-36.07389-14.08064c-69.08843-63.62835-79.04992-125.87159,16.20865-185.65021l656.51613,0Z" transform="translate(-284.2818 -311.47748)"/><path class="cls-15" d="M1653.30277,1226.61286l-656.51613,0c-83.259-68.55323-102.27429-135.60089,0-199.80645l656.51613,0Z" transform="translate(-284.2818 -311.47748)"/><path class="cls-16" d="M1653.30277,1226.61286l-656.51613,0c-83.259-68.52729-102.27429-135.54958,0-199.73084l656.51613,0Z" transform="translate(-284.2818 -311.47748)"/><path class="cls-3" d="M1032.439,1226.56252c-54.46547,0-93.74809-40.21944-93.74809-100.01234,0-60.86494,40.4876-99.74373,92.5431-99.74373,26.75074,0,51.5735,9.9208,65.79236,25.20418l-26.02775,32.97995c-7.95292-10.18893-21.68979-17.69656-38.31863-17.69656-28.91971,0-50.12751,25.20418-50.12751,59.25616,0,34.85684,18.55682,59.7929,52.0555,59.7929,9.6399,0,18.55682-1.60878,25.78674-5.09447V1146.6599h-32.53468v-37.0014h70.37132v100.54811C1081.60256,1219.85928,1058.70778,1226.56252,1032.439,1226.56252Z" transform="translate(-284.2818 -311.47748)"/><path class="cls-3" d="M1194.38946,1226.56252l-36.87264-79.25191H1143.539v79.25191h-40.48761V1026.88206h65.06937c32.77568,0,65.31036,14.66584,65.31036,60.35555,0,26.79284-13.49587,45.97123-35.42665,53.86822l44.58456,85.45669Zm-29.16071-160.75959H1143.298v46.53582h19.52081c13.25487,0,29.88371-3.94849,29.88371-24.255C1192.70248,1069.46939,1177.51963,1065.80293,1165.22875,1065.80293Z" transform="translate(-284.2818 -311.47748)"/><path class="cls-3" d="M1233.91132,1219.31244V1034.18556H1348.6262v37.9145h-74.95027v34.77675h70.85331V1142.699h-70.85331v38.43746h79.28823v38.176Z" transform="translate(-284.2818 -311.47748)"/><path class="cls-3" d="M1351.2763,1219.31244V1034.18556h114.71488v37.9145h-74.95027v34.77675h70.85331V1142.699h-70.85331v38.43746h79.28823v38.176Z" transform="translate(-284.2818 -311.47748)"/><path class="cls-3" d="M1577.09022,1226.61287l-68.68433-130.66419h-.723l.964,130.66419h-40.00561V1026.80645h46.99454l68.44334,130.382h.723l-.964-130.382h40.00561c50.6326,62.27564,44.76861,129.37878,0,199.80642Z" transform="translate(-284.2818 -311.47748)"/><path class="cls-17" d="M1003.02014,1224.2946c-60.47266,0-104.08789-39.27738-104.08789-97.66974,0-59.43928,44.95312-97.4074,102.75-97.4074,29.70117,0,57.26172,9.68841,73.04883,24.61382l-28.89844,32.20744c-8.83008-9.95027-24.082-17.282-42.54492-17.282-32.10938,0-55.65625,24.61382-55.65625,57.86818,0,34.04039,20.60351,58.39236,57.79687,58.39236,10.70313,0,20.60352-1.57109,28.63086-4.97513v-33.77854h-36.123v-36.13471H1076.069v98.193C1057.60608,1217.74837,1032.18615,1224.2946,1003.02014,1224.2946Z" transform="translate(-284.2818 -311.47748)"/><path class="cls-18" d="M1182.83264,1224.2946l-40.93945-77.42489h-15.51954v77.42489h-44.95312V1029.21746h72.24609c36.39063,0,72.51367,14.32773,72.51367,58.96414,0,26.17517-14.98437,44.91144-39.334,52.62638l49.502,83.48662Zm-32.377-157.05354h-24.34961v45.463h21.67382c14.7168,0,33.17969-3.85746,33.17969-23.69587C1180.95959,1070.823,1164.10217,1067.24106,1150.45569,1067.24106Z" transform="translate(-284.2818 -311.47748)"/><path class="cls-19" d="M1226.7135,1224.2946V1029.21746h127.36719v39.95234h-83.2168v36.64594h78.668v37.74757h-78.668v40.50341h88.0332v40.22788Z" transform="translate(-284.2818 -311.47748)"/><path class="cls-20" d="M1357.02307,1224.2946V1029.21746h127.36719v39.95234h-83.2168v36.64594h78.668v37.74757h-78.668v40.50341h88.0332v40.22788Z" transform="translate(-284.2818 -311.47748)"/><path class="cls-21" d="M1607.74279,1224.2946,1531.483,1096.72314h-.80274l1.07032,127.57146h-44.418V1029.21746h52.17773l75.99219,127.29592h.80273l-1.07031-127.29592h44.418c56.217,60.80162,49.7063,126.31647,0,195.07714Z" transform="translate(-284.2818 -311.47748)"/><circle class="cls-12" cx="1069.44745" cy="943.32778" r="90.97561"/><circle class="cls-12" cx="1007.56236" cy="690.231" r="90.97561"/><rect class="cls-22" x="1257.05748" y="704.88475" width="182.4248" height="289.39297" rx="31.31999" transform="translate(204.3639 -803.78529) rotate(25.13993)"/><rect class="cls-10" x="1292.83992" y="1254.30323" width="179.92055" height="289.39297" rx="31.10339" transform="translate(-556.72719 24.7435) rotate(-12.63047)"/><circle class="cls-13" cx="1007.54279" cy="654.4157" r="90.97561"/><circle class="cls-13" cx="1074.30085" cy="971.83506" r="90.97561"/></svg>